<?xml version="1.0" encoding="UTF-8" standalone="no"?>
<svg xmlns="http://www.w3.org/2000/svg" viewBox="0 0 1000 1000">

    <path
            id="path"
            d="M 500 0C 224 0 0 224 0 500C 0 776 224 1000 500 1000C 776 1000 1000 776 1000 500C 1000 224 776 0 500 0C 500 0 500 0 500 0M 500 75C 735 75 925 265 925 500C 925 735 735 925 500 925C 265 925 75 735 75 500C 75 265 265 75 500 75C 500 75 500 75 500 75 M 444 368C 466 389 484 412 500 436C 516 412 534 389 556 368C 595 333 647 307 712 307C 823 307 914 395 914 503C 914 611 823 698 712 698C 650 701 600 677 563 643C 538 620 518 593 500 565C 482 593 462 620 437 643C 400 677 350 701 288 698C 177 698 86 611 86 503C 86 395 177 307 288 307C 353 307 405 333 444 368C 444 368 444 368 444 368M 155 503C 155 572 213 629 288 629C 288 629 288 629 288 629C 288 629 289 629 289 629C 335 631 363 618 390 593C 415 570 437 537 459 500C 440 469 420 440 397 419C 368 392 337 376 288 376C 213 376 155 433 155 503C 155 503 155 503 155 503M 603 419C 580 440 560 469 541 500C 563 537 585 570 610 593C 637 618 665 631 711 629C 711 629 712 629 712 629C 712 629 712 629 712 629C 787 629 845 572 845 503C 845 433 787 376 712 376C 663 376 632 392 603 419C 603 419 603 419 603 419M 722 440C 722 440 722 478 722 478C 722 478 759 478 759 478C 759 478 759 516 759 516C 759 516 722 516 722 516C 722 516 722 554 722 554C 722 554 694 554 694 554C 694 554 683 554 683 554C 683 554 683 516 683 516C 683 516 645 516 645 516C 645 516 645 478 645 478C 645 478 683 478 683 478C 683 478 683 440 683 440C 683 440 722 440 722 440M 362 482C 362 482 362 512 362 512C 362 512 245 512 245 512C 245 512 224 512 224 512C 224 512 224 482 224 482C 224 482 362 482 362 482"
            transform="">
    </path>
</svg>