<svg role="img" viewBox="0 0 24 24" xmlns="http://www.w3.org/2000/svg" id="Espressif--Streamline-Simple-Icons">
  <title>Espressif</title>
  <path d="M12.926 19.324a7.6 7.6 0 0 0 -2.983 -6.754 7.44 7.44 0 0 0 -3.828 -1.554 0.697 0.697 0 0 1 -0.606 -0.731 0.674 0.674 0 0 1 0.743 -0.617 8.97 8.97 0 0 1 8 9.805 7.828 7.828 0 0 1 -0.298 1.542l1.989 0.56a11.039 11.039 0 0 0 1.714 -0.651 12.159 12.159 0 0 0 0.217 -2.343A12.57 12.57 0 0 0 7.212 6.171a5.53 5.53 0 0 0 -2 0 4.354 4.354 0 0 0 -2.16 1.337 4.274 4.274 0 0 0 1.909 6.856 9.896 9.896 0 0 0 1.074 0.195 4.011 4.011 0 0 1 3.337 3.954 3.965 3.965 0 0 1 -0.64 2.16l1.371 0.88a10.182 10.182 0 0 0 2.057 0.342 7.52 7.52 0 0 0 0.754 -2.628m0.16 4.73A13.073 13.073 0 0 1 0.001 10.983 12.982 12.982 0 0 1 3.83 1.737l0.743 0.697a12.067 12.067 0 0 0 0 17.141 12.067 12.067 0 0 0 17.141 0l0.697 0.697a12.97 12.97 0 0 1 -9.336 3.726M24 10.993A10.993 10.993 0 0 0 12.949 0c-0.389 0 -0.766 0 -1.143 0.057l-0.252 0.732a18.912 18.912 0 0 1 11.588 11.576l0.731 -0.263c0 -0.366 0.069 -0.732 0.069 -1.143m-1.269 5.165A17.53 17.53 0 0 0 7.818 1.27a11.119 11.119 0 0 0 -2.457 1.77v1.635A13.919 13.919 0 0 1 19.268 18.57h1.634a11.713 11.713 0 0 0 1.771 -2.446M7.92 17.884a1.691 1.691 0 1 1 -1.69 -1.691 1.691 1.691 0 0 1 1.69 1.691" stroke-width="1"></path>
</svg>