<svg viewBox="0 0 32 18" fill="none" xmlns="http://www.w3.org/2000/svg">
<path d="M14.133 15.854L12.961 12.661C12.961 12.661 11.049 14.792 8.19 14.792C5.653 14.792 3.857 12.589 3.857 9.063C3.857 4.552 6.133 2.938 8.372 2.938C11.596 2.938 12.617 5.027 13.497 7.71L14.658 11.377C15.819 14.938 18.023 17.798 24.371 17.798C28.919 17.798 32.002 16.407 32.002 12.73C32.002 9.762 30.305 8.219 27.158 7.486L24.814 6.975C23.19 6.604 22.71 5.943 22.71 4.844C22.71 3.595 23.695 2.86 25.314 2.86C27.081 2.86 28.018 3.521 28.179 5.1L31.84 4.656C31.543 1.355 29.256 0 25.517 0C22.209 0 18.985 1.251 18.985 5.245C18.985 7.745 20.189 9.322 23.23 10.052L25.714 10.641C27.579 11.084 28.198 11.865 28.198 12.928C28.198 14.287 26.875 14.849 24.37 14.849C20.667 14.849 19.126 12.906 18.246 10.224L17.042 6.557C15.501 1.792 13.037 0.026 8.151 0.026C2.864 0.01 0 3.411 0 9.218C0 14.791 2.864 17.813 8.005 17.813C12.145 17.813 14.13 15.87 14.13 15.87L14.133 15.854Z"/>
</svg>
