<svg width="1617" height="1622" viewBox="0 0 1617 1622" fill="none" xmlns="http://www.w3.org/2000/svg">
<mask id="path-1-outside-1_1_3" maskUnits="userSpaceOnUse" x="-0.00582886" y="-0.996933" width="1617" height="1623" fill="black">
<rect fill="white" x="-0.00582886" y="-0.996933" width="1617" height="1623"/>
<path d="M1163.41 1513.81C1164.18 1504.07 1165.97 1478.41 1167.26 1456.35C1168.8 1434.29 1170.85 1411.97 1171.62 1406.84C1173.16 1398.63 1172.39 1396.58 1162.38 1385.29C1156.23 1378.36 1134.68 1353.99 1114.41 1331.41C1094.4 1308.58 1073.88 1287.03 1069.26 1283.44L1060.54 1276.77L1047.2 1283.95C1031.29 1292.68 1031.29 1291.65 1049.25 1335.26C1056.43 1352.45 1065.93 1378.36 1070.03 1392.98C1077.98 1420.18 1089.27 1476.87 1087.48 1478.67C1085.17 1481.23 1059.77 1458.66 1035.4 1432.49C1021.55 1417.36 999.741 1396.32 986.915 1386.06C974.345 1375.8 958.183 1361.43 951 1354.25C943.304 1346.29 936.122 1341.16 932.787 1341.16C929.708 1341.16 926.63 1339.88 926.117 1338.08C925.347 1335.78 917.395 1336.29 894.307 1339.62C832.74 1348.35 757.575 1347.58 701.395 1337.06L680.36 1333.21L666.25 1339.62C658.555 1343.47 649.319 1347.58 645.728 1348.86C641.88 1350.4 637.519 1354.76 636.236 1358.61C634.697 1362.46 625.975 1371.43 616.483 1378.36C607.248 1385.29 582.878 1407.35 562.355 1427.36C529.776 1458.92 508.484 1477.39 508.484 1473.79C508.484 1473.28 511.305 1458.92 514.64 1442.24C522.593 1404.02 537.215 1359.12 554.659 1319.61L568.255 1289.09L562.612 1284.98C559.277 1282.42 552.863 1278.57 548.246 1276C539.78 1271.38 539.524 1271.38 530.545 1278.31C525.671 1281.9 512.588 1295.24 501.557 1307.3C490.526 1319.61 469.234 1342.96 454.099 1359.12L426.65 1388.88L428.959 1427.1C430.241 1448.4 432.037 1478.67 433.063 1494.83L435.761 1512.93C435.761 1512.93 437.93 1524.5 436.484 1525.22C435.039 1525.94 432.147 1523.77 432.147 1523.77L428.959 1521.61C415.876 1514.68 402.536 1501.5 381.244 1475.59C367.391 1458.92 357.9 1449.68 356.104 1450.96C354.565 1451.99 342.764 1459.68 330.194 1468.41C280.684 1502.01 265.805 1504.84 259.904 1481.23C256.057 1465.33 256.313 1456.61 262.47 1420.43C267.344 1392.98 267.857 1382.21 266.574 1343.22L265.035 1297.81L244 1259.84C217.833 1212.64 204.75 1186.47 183.458 1138.75C158.062 1081.8 156.779 1054.09 178.841 1026.9L187.306 1016.64L177.814 988.42C166.527 954.813 153.7 926.081 125.995 871.951C101.881 825.261 98.2896 810.894 109.32 805.251C122.917 797.811 160.37 807.046 215.781 831.674C230.66 838.088 243.23 842.962 243.743 842.192C246.308 839.883 217.577 782.931 194.232 743.424C146.005 661.588 106.499 584.882 95.2112 550.249C89.824 533.574 89.824 532.548 93.9285 523.313C106.755 495.606 158.318 473.031 261.7 449.686C294.023 442.502 299.41 440.707 299.154 436.602C298.897 433.78 295.819 409.152 292.227 381.702C283.505 316.541 280.17 270.364 280.17 211.616C280.17 157.999 284.788 129.267 297.358 107.204C303.002 96.9426 305.824 94.6338 315.572 92.0684C346.099 84.1156 407.924 120.544 508.484 206.229C530.289 224.7 562.612 254.715 580.056 272.673C611.096 304.484 611.866 305.253 615.97 300.123C618.279 297.301 627.771 290.374 637.262 284.474C650.858 276.264 659.324 273.186 678.307 270.107C700.369 266.259 703.961 266.259 726.535 270.107C748.084 273.956 753.984 276.264 776.559 289.604C801.186 304.227 802.982 306.023 820.169 330.394L837.87 355.792L851.979 356.562C860.188 357.075 873.784 355.279 883.02 352.97C892.255 350.405 903.799 349.635 908.416 349.635C912.777 349.635 910.042 349.635 912.027 349.635C916.924 349.635 925.347 349.635 925.347 349.635C925.347 349.635 933.043 349.635 935.608 350.918C939.2 350.918 941.509 353.226 947.152 356.048C952.796 358.87 958.44 361.179 959.722 361.179C961.262 361.179 977.423 344.248 995.637 323.211C1033.86 280.112 1072.08 243.427 1121.59 203.15C1189.57 147.738 1243.96 112.335 1277.05 101.817C1293.73 96.6861 1296.55 96.4296 1307.32 99.508C1322.46 103.613 1330.15 116.183 1337.59 149.02C1342.21 170.057 1342.72 178.009 1341.18 223.93C1339.13 294.735 1329.64 384.524 1317.84 442.246L1316.04 449.942L1352.99 458.665C1433.54 477.392 1477.92 494.067 1504.85 515.36C1520.76 528.187 1527.17 539.731 1524.35 551.532C1517.94 580.008 1471.76 666.975 1414.04 760.099C1390.18 798.58 1363.25 849.889 1365.56 852.454C1366.58 853.224 1376.84 849.632 1388.64 844.758C1435.08 824.748 1476.38 812.947 1492.28 814.999C1495.1 815.256 1499.98 817.308 1503.31 819.36C1512.29 825.261 1508.96 836.292 1482.28 887.087C1452.78 943.782 1436.87 977.902 1428.41 1003.56C1420.2 1028.18 1420.2 1029.21 1427.89 1039.22C1448.16 1065.9 1447.65 1092.06 1426.1 1139.78C1405.32 1185.7 1390.44 1214.69 1362.48 1262.92L1337.34 1306.53L1334.51 1338.6C1332.21 1363.23 1332.21 1378.62 1334.51 1404.02C1341.95 1486.88 1340.42 1505.86 1326.05 1507.4C1316.3 1508.68 1296.8 1498.68 1267.3 1477.9C1254.22 1468.66 1242.16 1460.97 1240.37 1460.71C1238.83 1460.45 1227.8 1471.23 1216 1484.57C1195.22 1508.43 1170.08 1531 1164.95 1531C1163.15 1531 1162.64 1524.85 1163.41 1513.81Z"/>
</mask>
<path d="M1163.41 1513.81C1164.18 1504.07 1165.97 1478.41 1167.26 1456.35C1168.8 1434.29 1170.85 1411.97 1171.62 1406.84C1173.16 1398.63 1172.39 1396.58 1162.38 1385.29C1156.23 1378.36 1134.68 1353.99 1114.41 1331.41C1094.4 1308.58 1073.88 1287.03 1069.26 1283.44L1060.54 1276.77L1047.2 1283.95C1031.29 1292.68 1031.29 1291.65 1049.25 1335.26C1056.43 1352.45 1065.93 1378.36 1070.03 1392.98C1077.98 1420.18 1089.27 1476.87 1087.48 1478.67C1085.17 1481.23 1059.77 1458.66 1035.4 1432.49C1021.55 1417.36 999.741 1396.32 986.915 1386.06C974.345 1375.8 958.183 1361.43 951 1354.25C943.304 1346.29 936.122 1341.16 932.787 1341.16C929.708 1341.16 926.63 1339.88 926.117 1338.08C925.347 1335.78 917.395 1336.29 894.307 1339.62C832.74 1348.35 757.575 1347.58 701.395 1337.06L680.36 1333.21L666.25 1339.62C658.555 1343.47 649.319 1347.58 645.728 1348.86C641.88 1350.4 637.519 1354.76 636.236 1358.61C634.697 1362.46 625.975 1371.43 616.483 1378.36C607.248 1385.29 582.878 1407.35 562.355 1427.36C529.776 1458.92 508.484 1477.39 508.484 1473.79C508.484 1473.28 511.305 1458.92 514.64 1442.24C522.593 1404.02 537.215 1359.12 554.659 1319.61L568.255 1289.09L562.612 1284.98C559.277 1282.42 552.863 1278.57 548.246 1276C539.78 1271.38 539.524 1271.38 530.545 1278.31C525.671 1281.9 512.588 1295.24 501.557 1307.3C490.526 1319.61 469.234 1342.96 454.099 1359.12L426.65 1388.88L428.959 1427.1C430.241 1448.4 432.037 1478.67 433.063 1494.83L435.761 1512.93C435.761 1512.93 437.93 1524.5 436.484 1525.22C435.039 1525.94 432.147 1523.77 432.147 1523.77L428.959 1521.61C415.876 1514.68 402.536 1501.5 381.244 1475.59C367.391 1458.92 357.9 1449.68 356.104 1450.96C354.565 1451.99 342.764 1459.68 330.194 1468.41C280.684 1502.01 265.805 1504.84 259.904 1481.23C256.057 1465.33 256.313 1456.61 262.47 1420.43C267.344 1392.98 267.857 1382.21 266.574 1343.22L265.035 1297.81L244 1259.84C217.833 1212.64 204.75 1186.47 183.458 1138.75C158.062 1081.8 156.779 1054.09 178.841 1026.9L187.306 1016.64L177.814 988.42C166.527 954.813 153.7 926.081 125.995 871.951C101.881 825.261 98.2896 810.894 109.32 805.251C122.917 797.811 160.37 807.046 215.781 831.674C230.66 838.088 243.23 842.962 243.743 842.192C246.308 839.883 217.577 782.931 194.232 743.424C146.005 661.588 106.499 584.882 95.2112 550.249C89.824 533.574 89.824 532.548 93.9285 523.313C106.755 495.606 158.318 473.031 261.7 449.686C294.023 442.502 299.41 440.707 299.154 436.602C298.897 433.78 295.819 409.152 292.227 381.702C283.505 316.541 280.17 270.364 280.17 211.616C280.17 157.999 284.788 129.267 297.358 107.204C303.002 96.9426 305.824 94.6338 315.572 92.0684C346.099 84.1156 407.924 120.544 508.484 206.229C530.289 224.7 562.612 254.715 580.056 272.673C611.096 304.484 611.866 305.253 615.97 300.123C618.279 297.301 627.771 290.374 637.262 284.474C650.858 276.264 659.324 273.186 678.307 270.107C700.369 266.259 703.961 266.259 726.535 270.107C748.084 273.956 753.984 276.264 776.559 289.604C801.186 304.227 802.982 306.023 820.169 330.394L837.87 355.792L851.979 356.562C860.188 357.075 873.784 355.279 883.02 352.97C892.255 350.405 903.799 349.635 908.416 349.635C912.777 349.635 910.042 349.635 912.027 349.635C916.924 349.635 925.347 349.635 925.347 349.635C925.347 349.635 933.043 349.635 935.608 350.918C939.2 350.918 941.509 353.226 947.152 356.048C952.796 358.87 958.44 361.179 959.722 361.179C961.262 361.179 977.423 344.248 995.637 323.211C1033.86 280.112 1072.08 243.427 1121.59 203.15C1189.57 147.738 1243.96 112.335 1277.05 101.817C1293.73 96.6861 1296.55 96.4296 1307.32 99.508C1322.46 103.613 1330.15 116.183 1337.59 149.02C1342.21 170.057 1342.72 178.009 1341.18 223.93C1339.13 294.735 1329.64 384.524 1317.84 442.246L1316.04 449.942L1352.99 458.665C1433.54 477.392 1477.92 494.067 1504.85 515.36C1520.76 528.187 1527.17 539.731 1524.35 551.532C1517.94 580.008 1471.76 666.975 1414.04 760.099C1390.18 798.58 1363.25 849.889 1365.56 852.454C1366.58 853.224 1376.84 849.632 1388.64 844.758C1435.08 824.748 1476.38 812.947 1492.28 814.999C1495.1 815.256 1499.98 817.308 1503.31 819.36C1512.29 825.261 1508.96 836.292 1482.28 887.087C1452.78 943.782 1436.87 977.902 1428.41 1003.56C1420.2 1028.18 1420.2 1029.21 1427.89 1039.22C1448.16 1065.9 1447.65 1092.06 1426.1 1139.78C1405.32 1185.7 1390.44 1214.69 1362.48 1262.92L1337.34 1306.53L1334.51 1338.6C1332.21 1363.23 1332.21 1378.62 1334.51 1404.02C1341.95 1486.88 1340.42 1505.86 1326.05 1507.4C1316.3 1508.68 1296.8 1498.68 1267.3 1477.9C1254.22 1468.66 1242.16 1460.97 1240.37 1460.71C1238.83 1460.45 1227.8 1471.23 1216 1484.57C1195.22 1508.43 1170.08 1531 1164.95 1531C1163.15 1531 1162.64 1524.85 1163.41 1513.81Z" fill="white"/>
<path d="M1163.41 1513.81C1164.18 1504.07 1165.97 1478.41 1167.26 1456.35C1168.8 1434.29 1170.85 1411.97 1171.62 1406.84C1173.16 1398.63 1172.39 1396.58 1162.38 1385.29C1156.23 1378.36 1134.68 1353.99 1114.41 1331.41C1094.4 1308.58 1073.88 1287.03 1069.26 1283.44L1060.54 1276.77L1047.2 1283.95C1031.29 1292.68 1031.29 1291.65 1049.25 1335.26C1056.43 1352.45 1065.93 1378.36 1070.03 1392.98C1077.98 1420.18 1089.27 1476.87 1087.48 1478.67C1085.17 1481.23 1059.77 1458.66 1035.4 1432.49C1021.55 1417.36 999.741 1396.32 986.915 1386.06C974.345 1375.8 958.183 1361.43 951 1354.25C943.304 1346.29 936.122 1341.16 932.787 1341.16C929.708 1341.16 926.63 1339.88 926.117 1338.08C925.347 1335.78 917.395 1336.29 894.307 1339.62C832.74 1348.35 757.575 1347.58 701.395 1337.06L680.36 1333.21L666.25 1339.62C658.555 1343.47 649.319 1347.58 645.728 1348.86C641.88 1350.4 637.519 1354.76 636.236 1358.61C634.697 1362.46 625.975 1371.43 616.483 1378.36C607.248 1385.29 582.878 1407.35 562.355 1427.36C529.776 1458.92 508.484 1477.39 508.484 1473.79C508.484 1473.28 511.305 1458.92 514.64 1442.24C522.593 1404.02 537.215 1359.12 554.659 1319.61L568.255 1289.09L562.612 1284.98C559.277 1282.42 552.863 1278.57 548.246 1276C539.78 1271.38 539.524 1271.38 530.545 1278.31C525.671 1281.9 512.588 1295.24 501.557 1307.3C490.526 1319.61 469.234 1342.96 454.099 1359.12L426.65 1388.88L428.959 1427.1C430.241 1448.4 432.037 1478.67 433.063 1494.83L435.761 1512.93C435.761 1512.93 437.93 1524.5 436.484 1525.22C435.039 1525.94 432.147 1523.77 432.147 1523.77L428.959 1521.61C415.876 1514.68 402.536 1501.5 381.244 1475.59C367.391 1458.92 357.9 1449.68 356.104 1450.96C354.565 1451.99 342.764 1459.68 330.194 1468.41C280.684 1502.01 265.805 1504.84 259.904 1481.23C256.057 1465.33 256.313 1456.61 262.47 1420.43C267.344 1392.98 267.857 1382.21 266.574 1343.22L265.035 1297.81L244 1259.84C217.833 1212.64 204.75 1186.47 183.458 1138.75C158.062 1081.8 156.779 1054.09 178.841 1026.9L187.306 1016.64L177.814 988.42C166.527 954.813 153.7 926.081 125.995 871.951C101.881 825.261 98.2896 810.894 109.32 805.251C122.917 797.811 160.37 807.046 215.781 831.674C230.66 838.088 243.23 842.962 243.743 842.192C246.308 839.883 217.577 782.931 194.232 743.424C146.005 661.588 106.499 584.882 95.2112 550.249C89.824 533.574 89.824 532.548 93.9285 523.313C106.755 495.606 158.318 473.031 261.7 449.686C294.023 442.502 299.41 440.707 299.154 436.602C298.897 433.78 295.819 409.152 292.227 381.702C283.505 316.541 280.17 270.364 280.17 211.616C280.17 157.999 284.788 129.267 297.358 107.204C303.002 96.9426 305.824 94.6338 315.572 92.0684C346.099 84.1156 407.924 120.544 508.484 206.229C530.289 224.7 562.612 254.715 580.056 272.673C611.096 304.484 611.866 305.253 615.97 300.123C618.279 297.301 627.771 290.374 637.262 284.474C650.858 276.264 659.324 273.186 678.307 270.107C700.369 266.259 703.961 266.259 726.535 270.107C748.084 273.956 753.984 276.264 776.559 289.604C801.186 304.227 802.982 306.023 820.169 330.394L837.87 355.792L851.979 356.562C860.188 357.075 873.784 355.279 883.02 352.97C892.255 350.405 903.799 349.635 908.416 349.635C912.777 349.635 910.042 349.635 912.027 349.635C916.924 349.635 925.347 349.635 925.347 349.635C925.347 349.635 933.043 349.635 935.608 350.918C939.2 350.918 941.509 353.226 947.152 356.048C952.796 358.87 958.44 361.179 959.722 361.179C961.262 361.179 977.423 344.248 995.637 323.211C1033.86 280.112 1072.08 243.427 1121.59 203.15C1189.57 147.738 1243.96 112.335 1277.05 101.817C1293.73 96.6861 1296.55 96.4296 1307.32 99.508C1322.46 103.613 1330.15 116.183 1337.59 149.02C1342.21 170.057 1342.72 178.009 1341.18 223.93C1339.13 294.735 1329.64 384.524 1317.84 442.246L1316.04 449.942L1352.99 458.665C1433.54 477.392 1477.92 494.067 1504.85 515.36C1520.76 528.187 1527.17 539.731 1524.35 551.532C1517.94 580.008 1471.76 666.975 1414.04 760.099C1390.18 798.58 1363.25 849.889 1365.56 852.454C1366.58 853.224 1376.84 849.632 1388.64 844.758C1435.08 824.748 1476.38 812.947 1492.28 814.999C1495.1 815.256 1499.98 817.308 1503.31 819.36C1512.29 825.261 1508.96 836.292 1482.28 887.087C1452.78 943.782 1436.87 977.902 1428.41 1003.56C1420.2 1028.18 1420.2 1029.21 1427.89 1039.22C1448.16 1065.9 1447.65 1092.06 1426.1 1139.78C1405.32 1185.7 1390.44 1214.69 1362.48 1262.92L1337.34 1306.53L1334.51 1338.6C1332.21 1363.23 1332.21 1378.62 1334.51 1404.02C1341.95 1486.88 1340.42 1505.86 1326.05 1507.4C1316.3 1508.68 1296.8 1498.68 1267.3 1477.9C1254.22 1468.66 1242.16 1460.97 1240.37 1460.71C1238.83 1460.45 1227.8 1471.23 1216 1484.57C1195.22 1508.43 1170.08 1531 1164.95 1531C1163.15 1531 1162.64 1524.85 1163.41 1513.81Z" stroke="black" stroke-width="182" mask="url(#path-1-outside-1_1_3)"/>
</svg>
